%TF.GenerationSoftware,KiCad,Pcbnew,(6.0.1-0)*%
%TF.CreationDate,2022-03-10T10:55:53-08:00*%
%TF.ProjectId,MicroGreens PCB,4d696372-6f47-4726-9565-6e7320504342,rev?*%
%TF.SameCoordinates,Original*%
%TF.FileFunction,Soldermask,Bot*%
%TF.FilePolarity,Negative*%
%FSLAX46Y46*%
G04 Gerber Fmt 4.6, Leading zero omitted, Abs format (unit mm)*
G04 Created by KiCad (PCBNEW (6.0.1-0)) date 2022-03-10 10:55:53*
%MOMM*%
%LPD*%
G01*
G04 APERTURE LIST*
%ADD10R,1.700000X1.700000*%
%ADD11O,1.700000X1.700000*%
%ADD12R,1.905000X2.000000*%
%ADD13O,1.905000X2.000000*%
%ADD14R,2.200000X2.200000*%
%ADD15C,2.200000*%
%ADD16C,1.600000*%
%ADD17O,1.600000X1.600000*%
%ADD18R,1.874000X1.874000*%
%ADD19C,1.874000*%
%ADD20R,2.128000X2.128000*%
%ADD21C,2.128000*%
%ADD22C,8.600000*%
%ADD23R,1.800000X1.800000*%
%ADD24C,1.800000*%
%ADD25O,2.200000X2.200000*%
G04 APERTURE END LIST*
D10*
%TO.C,J13*%
X172979000Y-116078000D03*
D11*
X170439000Y-116078000D03*
%TD*%
D12*
%TO.C,Q2*%
X197358000Y-62240000D03*
D13*
X199898000Y-62240000D03*
X202438000Y-62240000D03*
%TD*%
D10*
%TO.C,J18*%
X187960000Y-72390000D03*
%TD*%
D14*
%TO.C,S1*%
X222810000Y-101890000D03*
D15*
X229310000Y-101890000D03*
X222810000Y-106390000D03*
X229310000Y-106390000D03*
%TD*%
D16*
%TO.C,R2*%
X215900000Y-71120000D03*
D17*
X223520000Y-71120000D03*
%TD*%
D16*
%TO.C,R7*%
X152560000Y-109500000D03*
D17*
X144940000Y-109500000D03*
%TD*%
D16*
%TO.C,R5*%
X175190000Y-67250000D03*
D17*
X182810000Y-67250000D03*
%TD*%
D16*
%TO.C,R12*%
X175060000Y-92500000D03*
D17*
X167440000Y-92500000D03*
%TD*%
D10*
%TO.C,J9*%
X227330000Y-124475000D03*
D11*
X227330000Y-127015000D03*
X227330000Y-129555000D03*
%TD*%
D10*
%TO.C,J10*%
X160020000Y-83805000D03*
D11*
X160020000Y-81265000D03*
X160020000Y-78725000D03*
%TD*%
D16*
%TO.C,R8*%
X226500000Y-112190000D03*
D17*
X226500000Y-119810000D03*
%TD*%
D18*
%TO.C,J6*%
X157088500Y-125982000D03*
D19*
X153128500Y-125982000D03*
X149168500Y-125982000D03*
%TD*%
D20*
%TO.C,J7*%
X202530000Y-125730000D03*
D21*
X198570000Y-125730000D03*
X194610000Y-125730000D03*
X190650000Y-125730000D03*
X186690000Y-125730000D03*
%TD*%
D18*
%TO.C,J3*%
X149100000Y-84952500D03*
D19*
X149100000Y-80992500D03*
X149100000Y-77032500D03*
%TD*%
D10*
%TO.C,J2*%
X236220000Y-124475000D03*
D11*
X236220000Y-127015000D03*
X236220000Y-129555000D03*
%TD*%
D22*
%TO.C,*%
X224250000Y-43580000D03*
%TD*%
D20*
%TO.C,J5*%
X173650500Y-125984000D03*
D21*
X169690500Y-125984000D03*
%TD*%
D16*
%TO.C,C1*%
X231100000Y-72390000D03*
X226100000Y-72390000D03*
%TD*%
%TO.C,R3*%
X182880000Y-72390000D03*
D17*
X175260000Y-72390000D03*
%TD*%
D10*
%TO.C,J16*%
X199977500Y-114808000D03*
D11*
X197437500Y-114808000D03*
X194897500Y-114808000D03*
X192357500Y-114808000D03*
X189817500Y-114808000D03*
%TD*%
D20*
%TO.C,J12*%
X178647500Y-42418000D03*
D21*
X182607500Y-42418000D03*
%TD*%
D10*
%TO.C,J14*%
X155956000Y-116332000D03*
D11*
X153416000Y-116332000D03*
X150876000Y-116332000D03*
%TD*%
D23*
%TO.C,D2*%
X220599000Y-52451000D03*
D24*
X218059000Y-52451000D03*
%TD*%
D16*
%TO.C,R4*%
X201930000Y-72400000D03*
D17*
X194310000Y-72400000D03*
%TD*%
D16*
%TO.C,C4*%
X234910000Y-114300000D03*
X229910000Y-114300000D03*
%TD*%
%TO.C,C3*%
X231140000Y-62230000D03*
X226140000Y-62230000D03*
%TD*%
D14*
%TO.C,D1*%
X175768000Y-53340000D03*
D25*
X185928000Y-53340000D03*
%TD*%
D16*
%TO.C,R11*%
X175060000Y-82750000D03*
D17*
X167440000Y-82750000D03*
%TD*%
D16*
%TO.C,R14*%
X217500000Y-112750000D03*
D17*
X209880000Y-112750000D03*
%TD*%
D16*
%TO.C,R9*%
X175060000Y-102750000D03*
D17*
X167440000Y-102750000D03*
%TD*%
D16*
%TO.C,C2*%
X231100000Y-67310000D03*
X226100000Y-67310000D03*
%TD*%
D10*
%TO.C,J11*%
X160020000Y-100300000D03*
D11*
X160020000Y-97760000D03*
X160020000Y-95220000D03*
%TD*%
D20*
%TO.C,J1*%
X149098000Y-44872500D03*
D21*
X149098000Y-40912500D03*
%TD*%
D14*
%TO.C,S2*%
X210110000Y-101890000D03*
D15*
X216610000Y-101890000D03*
X210110000Y-106390000D03*
X216610000Y-106390000D03*
%TD*%
D10*
%TO.C,J8*%
X147500000Y-66000000D03*
D11*
X147500000Y-63460000D03*
X147500000Y-60920000D03*
X147500000Y-58380000D03*
X147500000Y-55840000D03*
%TD*%
D16*
%TO.C,R6*%
X194440000Y-67500000D03*
D17*
X202060000Y-67500000D03*
%TD*%
D20*
%TO.C,J15*%
X197443500Y-42418000D03*
D21*
X201403500Y-42418000D03*
%TD*%
D16*
%TO.C,R15*%
X233250000Y-52500000D03*
D17*
X225630000Y-52500000D03*
%TD*%
D22*
%TO.C,REF\u002A\u002A*%
X164840000Y-44160000D03*
%TD*%
D16*
%TO.C,R10*%
X221750000Y-112190000D03*
D17*
X221750000Y-119810000D03*
%TD*%
D18*
%TO.C,J4*%
X149100000Y-101462500D03*
D19*
X149100000Y-97502500D03*
X149100000Y-93542500D03*
%TD*%
D22*
%TO.C,*%
X164840000Y-44160000D03*
%TD*%
%TO.C,S1*%
X224250000Y-43580000D03*
%TD*%
D16*
%TO.C,R1*%
X221040000Y-65000000D03*
D17*
X213420000Y-65000000D03*
%TD*%
D16*
%TO.C,R13*%
X217500000Y-119500000D03*
D17*
X209880000Y-119500000D03*
%TD*%
D10*
%TO.C,J19*%
X207010000Y-72400000D03*
%TD*%
D12*
%TO.C,Q1*%
X178308000Y-61905000D03*
D13*
X180848000Y-61905000D03*
X183388000Y-61905007D03*
%TD*%
D22*
%TO.C,S1*%
X215800000Y-128160000D03*
%TD*%
D10*
%TO.C,J17*%
X154000000Y-66000000D03*
D11*
X154000000Y-63460000D03*
X154000000Y-60920000D03*
X154000000Y-58380000D03*
X154000000Y-55840000D03*
%TD*%
M02*
