M48
; DRILL file {KiCad (6.0.1-0)} date Thursday, March 10, 2022 at 11:05:32 AM
; FORMAT={-:-/ absolute / inch / decimal}
; #@! TF.CreationDate,2022-03-10T11:05:32-08:00
; #@! TF.GenerationSoftware,Kicad,Pcbnew,(6.0.1-0)
; #@! TF.FileFunction,Plated,1,2,PTH
FMAT,2
INCH
; #@! TA.AperFunction,Plated,PTH,ViaDrill
T1C0.0157
; #@! TA.AperFunction,Plated,PTH,ComponentDrill
T2C0.0315
; #@! TA.AperFunction,Plated,PTH,ComponentDrill
T3C0.0354
; #@! TA.AperFunction,Plated,PTH,ComponentDrill
T4C0.0394
; #@! TA.AperFunction,Plated,PTH,ComponentDrill
T5C0.0433
; #@! TA.AperFunction,Plated,PTH,ComponentDrill
T6C0.0472
; #@! TA.AperFunction,Plated,PTH,ComponentDrill
T7C0.0600
; #@! TA.AperFunction,Plated,PTH,ComponentDrill
T8C0.0700
; #@! TA.AperFunction,Plated,PTH,ComponentDrill
T9C0.1693
%
G90
G05
T1
X9.05Y-3.85
T2
X5.7063Y-4.311
X6.0063Y-4.311
X6.5921Y-3.2579
X6.5921Y-3.6417
X6.5921Y-4.0453
X6.8921Y-3.2579
X6.8921Y-3.6417
X6.8921Y-4.0453
X6.8972Y-2.6476
X6.9Y-2.85
X7.1972Y-2.6476
X7.2Y-2.85
X7.65Y-2.8504
X7.6551Y-2.6575
X7.95Y-2.8504
X7.9551Y-2.6575
X8.263Y-4.439
X8.263Y-4.7047
X8.4024Y-2.5591
X8.5Y-2.8
X8.563Y-4.439
X8.563Y-4.7047
X8.7024Y-2.5591
X8.7303Y-4.4169
X8.7303Y-4.7169
X8.8Y-2.8
X8.8831Y-2.0669
X8.9016Y-2.65
X8.9016Y-2.85
X8.9031Y-2.45
X8.9173Y-4.4169
X8.9173Y-4.7169
X9.0516Y-4.5
X9.0984Y-2.65
X9.0984Y-2.85
X9.1Y-2.45
X9.1831Y-2.0669
X9.2484Y-4.5
T3
X8.585Y-2.065
X8.685Y-2.065
T4
X5.8071Y-2.1984
X5.8071Y-2.2984
X5.8071Y-2.3984
X5.8071Y-2.4984
X5.8071Y-2.5984
X5.94Y-4.58
X6.04Y-4.58
X6.063Y-2.1984
X6.063Y-2.2984
X6.063Y-2.3984
X6.063Y-2.4984
X6.063Y-2.5984
X6.14Y-4.58
X6.3Y-3.0994
X6.3Y-3.1994
X6.3Y-3.2994
X6.3Y-3.7488
X6.3Y-3.8488
X6.3Y-3.9488
X6.7102Y-4.57
X6.8102Y-4.57
X7.4Y-2.85
X7.4731Y-4.52
X7.5731Y-4.52
X7.6731Y-4.52
X7.7731Y-4.52
X7.8731Y-4.52
X8.15Y-2.8504
X8.95Y-4.9006
X8.95Y-5.0006
X8.95Y-5.1006
X9.3Y-4.9006
X9.3Y-5.0006
X9.3Y-5.1006
T5
X6.92Y-2.1
X7.02Y-2.4372
X7.12Y-2.4372
X7.22Y-2.4372
X7.32Y-2.1
X7.77Y-2.4504
X7.87Y-2.4504
X7.97Y-2.4504
T6
X8.272Y-4.0114
X8.272Y-4.1886
X8.528Y-4.0114
X8.528Y-4.1886
X8.772Y-4.0114
X8.772Y-4.1886
X9.028Y-4.0114
X9.028Y-4.1886
T7
X5.8701Y-3.0328
X5.8701Y-3.1887
X5.8701Y-3.3446
X5.8701Y-3.6828
X5.8701Y-3.8387
X5.8701Y-3.9946
X5.8728Y-4.9599
X6.0287Y-4.9599
X6.1846Y-4.9599
T8
X5.87Y-1.6107
X5.87Y-1.7666
X6.6807Y-4.96
X6.8366Y-4.96
X7.0334Y-1.67
X7.1893Y-1.67
X7.35Y-4.95
X7.5059Y-4.95
X7.6618Y-4.95
X7.7734Y-1.67
X7.8177Y-4.95
X7.9293Y-1.67
X7.9736Y-4.95
T9
X6.4898Y-1.7386
X6.4898Y-1.7386
X8.4961Y-5.0457
X8.8287Y-1.7157
X8.8287Y-1.7157
T0
M30
